<?xml version="1.0" standalone="no"?>
<!DOCTYPE svg PUBLIC "-//W3C//DTD SVG 20010904//EN"
 "http://www.w3.org/TR/2001/REC-SVG-20010904/DTD/svg10.dtd">
<svg version="1.0" xmlns="http://www.w3.org/2000/svg"
 width="103.000000pt" height="73.000000pt" viewBox="0 0 103.000000 73.000000"
 preserveAspectRatio="xMidYMid meet">

<g transform="translate(0.000000,73.000000) scale(0.100000,-0.100000)"
fill="#000000" stroke="none">
<path d="M493 468 c-42 -11 -65 -46 -65 -100 -1 -56 16 -86 57 -104 68 -28
135 13 135 82 0 34 -1 34 -45 34 -38 0 -45 -3 -45 -20 0 -13 7 -20 20 -20 11
0 20 -4 20 -8 0 -15 -24 -32 -45 -32 -31 0 -45 19 -45 61 0 58 49 91 80 54 13
-16 60 -21 60 -6 0 18 -36 52 -65 59 -16 5 -45 5 -62 0z"/>
<path d="M240 365 l0 -105 25 0 c21 0 25 5 25 29 0 25 4 29 36 34 51 8 74 32
74 77 0 54 -23 70 -98 70 l-62 0 0 -105z m105 35 c0 -20 -6 -26 -27 -28 -25
-3 -28 0 -28 28 0 28 3 31 28 28 21 -2 27 -8 27 -28z"/>
<path d="M670 378 c-18 -51 -35 -99 -38 -105 -3 -9 5 -13 23 -13 18 0 29 6 32
20 8 29 79 29 88 0 4 -14 15 -20 35 -20 l29 0 -37 105 c-36 103 -38 105 -68
105 -30 0 -32 -3 -64 -92z m77 -24 c-3 -3 -12 -4 -20 -2 -11 2 -12 9 -5 28
l10 25 11 -23 c5 -12 8 -25 4 -28z"/>
</g>
</svg>
